HIERARCHY
ROOT Root
{
  OFFSET 0.0 0.0 0.0
  CHANNELS 6 Xposition Yposition Zposition Zrotation Yrotation Xrotation
  JOINT Hips
  {
    OFFSET 0.0 100.0 0.0
    CHANNELS 6 Xposition Yposition Zposition Zrotation Yrotation Xrotation
    JOINT Spine1
    {
      OFFSET -0.013727 5.003763 -0.053727
      CHANNELS 3 Zrotation Yrotation Xrotation
      JOINT Spine2
      {
        OFFSET -0.0 7.125301 -0.029825
        CHANNELS 3 Zrotation Yrotation Xrotation
        JOINT Chest
        {
          OFFSET -1e-06 7.550063 -0.815971
          CHANNELS 3 Zrotation Yrotation Xrotation
          JOINT Neck1
          {
            OFFSET -0.181677 26.311295 -0.553348
            CHANNELS 3 Zrotation Yrotation Xrotation
            JOINT Neck2
            {
              OFFSET -3e-06 7.709397 2.302585
              CHANNELS 3 Zrotation Yrotation Xrotation
              JOINT Head
              {
                OFFSET -5e-06 6.128916 1.953709
                CHANNELS 3 Zrotation Yrotation Xrotation
                JOINT HeadEnd
                {
                  OFFSET 0.003598 16.065403 -1.835379
                  CHANNELS 3 Zrotation Yrotation Xrotation
                }
                JOINT Jaw
                {
                  OFFSET 0.002637 0.475592 3.094941
                  CHANNELS 3 Zrotation Yrotation Xrotation
                }
                JOINT LeftEye
                {
                  OFFSET 3.206381 5.380205 7.586883
                  CHANNELS 3 Zrotation Yrotation Xrotation
                }
                JOINT RightEye
                {
                  OFFSET -3.22244 5.361869 7.558234
                  CHANNELS 3 Zrotation Yrotation Xrotation
                }
              }
            }
          }
          JOINT LeftShoulder
          {
            OFFSET 1.621652 23.237164 5.113413
            CHANNELS 3 Zrotation Yrotation Xrotation
            JOINT LeftArm
            {
              OFFSET 14.919846 2e-06 -5.502326
              CHANNELS 3 Zrotation Yrotation Xrotation
              JOINT LeftForeArm
              {
                OFFSET 28.739307 0.0 -0.002588
                CHANNELS 3 Zrotation Yrotation Xrotation
                JOINT LeftHand
                {
                  OFFSET 27.093981 -1e-06 0.002609
                  CHANNELS 3 Zrotation Yrotation Xrotation
                  JOINT LeftHandThumb1
                  {
                    OFFSET 2.276482 -1.392045 3.191413
                    CHANNELS 3 Zrotation Yrotation Xrotation
                    JOINT LeftHandThumb2
                    {
                      OFFSET 4.012836 -1.828127 1.641654
                      CHANNELS 3 Zrotation Yrotation Xrotation
                      JOINT LeftHandThumb3
                      {
                        OFFSET 2.798515 0.0 -3e-06
                        CHANNELS 3 Zrotation Yrotation Xrotation
                        JOINT LeftHandThumbEnd
                        {
                          OFFSET 3.180793 -4e-06 4e-06
                          CHANNELS 3 Zrotation Yrotation Xrotation
                        }
                      }
                    }
                  }
                  JOINT LeftHandIndex1
                  {
                    OFFSET 3.247555 -0.531998 2.296169
                    CHANNELS 3 Zrotation Yrotation Xrotation
                    JOINT LeftHandIndex2
                    {
                      OFFSET 6.364578 0.01206 0.1786
                      CHANNELS 3 Zrotation Yrotation Xrotation
                      JOINT LeftHandIndex3
                      {
                        OFFSET 3.662364 0.0 0.0
                        CHANNELS 3 Zrotation Yrotation Xrotation
                        JOINT LeftHandIndex4
                        {
                          OFFSET 2.329242 4e-06 4e-06
                          CHANNELS 3 Zrotation Yrotation Xrotation
                          JOINT LeftHandIndexEnd
                          {
                            OFFSET 2.759615 -0.180537 -0.113024
                            CHANNELS 3 Zrotation Yrotation Xrotation
                          }
                        }
                      }
                    }
                  }
                  JOINT LeftHandMiddle1
                  {
                    OFFSET 3.163495 0.240981 1.000332
                    CHANNELS 3 Zrotation Yrotation Xrotation
                    JOINT LeftHandMiddle2
                    {
                      OFFSET 6.19078 -0.259278 -1.002548
                      CHANNELS 3 Zrotation Yrotation Xrotation
                      JOINT LeftHandMiddle3
                      {
                        OFFSET 4.35652 -4e-06 -1e-06
                        CHANNELS 3 Zrotation Yrotation Xrotation
                        JOINT LeftHandMiddle4
                        {
                          OFFSET 2.996877 -8e-06 0.0
                          CHANNELS 3 Zrotation Yrotation Xrotation
                          JOINT LeftHandMiddleEnd
                          {
                            OFFSET 2.304287 -0.294569 -0.031741
                            CHANNELS 3 Zrotation Yrotation Xrotation
                          }
                        }
                      }
                    }
                  }
                  JOINT LeftHandRing1
                  {
                    OFFSET 2.882643 -0.053652 -0.322543
                    CHANNELS 3 Zrotation Yrotation Xrotation
                    JOINT LeftHandRing2
                    {
                      OFFSET 5.854541 -0.486202 -1.373841
                      CHANNELS 3 Zrotation Yrotation Xrotation
                      JOINT LeftHandRing3
                      {
                        OFFSET 4.350578 0.0 3e-06
                        CHANNELS 3 Zrotation Yrotation Xrotation
                        JOINT LeftHandRing4
                        {
                          OFFSET 2.651321 7e-06 2e-06
                          CHANNELS 3 Zrotation Yrotation Xrotation
                          JOINT LeftHandRingEnd
                          {
                            OFFSET 1.936105 0.077687 -7.1e-05
                            CHANNELS 3 Zrotation Yrotation Xrotation
                          }
                        }
                      }
                    }
                  }
                  JOINT LeftHandPinky1
                  {
                    OFFSET 2.8655 -0.310005 -1.600378
                    CHANNELS 3 Zrotation Yrotation Xrotation
                    JOINT LeftHandPinky2
                    {
                      OFFSET 5.087849 -1.331141 -1.77123
                      CHANNELS 3 Zrotation Yrotation Xrotation
                      JOINT LeftHandPinky3
                      {
                        OFFSET 3.070974 4e-06 0.0
                        CHANNELS 3 Zrotation Yrotation Xrotation
                        JOINT LeftHandPinky4
                        {
                          OFFSET 1.549672 0.0 1e-06
                          CHANNELS 3 Zrotation Yrotation Xrotation
                          JOINT LeftHandPinkyEnd
                          {
                            OFFSET 1.944893 -0.157802 0.057219
                            CHANNELS 3 Zrotation Yrotation Xrotation
                          }
                        }
                      }
                    }
                  }
                }
              }
            }
          }
          JOINT RightShoulder
          {
            OFFSET -1.380118 23.180309 5.214158
            CHANNELS 3 Zrotation Yrotation Xrotation
            JOINT RightArm
            {
              OFFSET -15.037196 1.2e-05 -5.545604
              CHANNELS 3 Zrotation Yrotation Xrotation
              JOINT RightForeArm
              {
                OFFSET -28.736639 2e-06 -0.002597
                CHANNELS 3 Zrotation Yrotation Xrotation
                JOINT RightHand
                {
                  OFFSET -27.133619 -0.0 0.002613
                  CHANNELS 3 Zrotation Yrotation Xrotation
                  JOINT RightHandThumb1
                  {
                    OFFSET -2.274032 -1.383988 3.163127
                    CHANNELS 3 Zrotation Yrotation Xrotation
                    JOINT RightHandThumb2
                    {
                      OFFSET -4.011429 -1.827466 1.640914
                      CHANNELS 3 Zrotation Yrotation Xrotation
                      JOINT RightHandThumb3
                      {
                        OFFSET -2.794935 -4e-06 -3e-06
                        CHANNELS 3 Zrotation Yrotation Xrotation
                        JOINT RightHandThumbEnd
                        {
                          OFFSET -3.183852 4e-06 1e-06
                          CHANNELS 3 Zrotation Yrotation Xrotation
                        }
                      }
                    }
                  }
                  JOINT RightHandIndex1
                  {
                    OFFSET -3.253266 -0.520057 2.282866
                    CHANNELS 3 Zrotation Yrotation Xrotation
                    JOINT RightHandIndex2
                    {
                      OFFSET -6.341917 0.012471 0.178266
                      CHANNELS 3 Zrotation Yrotation Xrotation
                      JOINT RightHandIndex3
                      {
                        OFFSET -3.654871 -8e-06 -0.0
                        CHANNELS 3 Zrotation Yrotation Xrotation
                        JOINT RightHandIndex4
                        {
                          OFFSET -2.327586 0.0 1e-06
                          CHANNELS 3 Zrotation Yrotation Xrotation
                          JOINT RightHandIndexEnd
                          {
                            OFFSET -2.76179 -0.180656 -0.113078
                            CHANNELS 3 Zrotation Yrotation Xrotation
                          }
                        }
                      }
                    }
                  }
                  JOINT RightHandMiddle1
                  {
                    OFFSET -3.168106 0.246593 1.00103
                    CHANNELS 3 Zrotation Yrotation Xrotation
                    JOINT RightHandMiddle2
                    {
                      OFFSET -6.180828 -0.258836 -1.000895
                      CHANNELS 3 Zrotation Yrotation Xrotation
                      JOINT RightHandMiddle3
                      {
                        OFFSET -4.348901 0.0 -0.0
                        CHANNELS 3 Zrotation Yrotation Xrotation
                        JOINT RightHandMiddle4
                        {
                          OFFSET -3.00024 -4e-06 -2e-06
                          CHANNELS 3 Zrotation Yrotation Xrotation
                          JOINT RightHandMiddleEnd
                          {
                            OFFSET -2.30252 -0.29437 -0.031706
                            CHANNELS 3 Zrotation Yrotation Xrotation
                          }
                        }
                      }
                    }
                  }
                  JOINT RightHandRing1
                  {
                    OFFSET -2.88569 -0.067952 -0.308858
                    CHANNELS 3 Zrotation Yrotation Xrotation
                    JOINT RightHandRing2
                    {
                      OFFSET -5.854198 -0.48613 -1.373731
                      CHANNELS 3 Zrotation Yrotation Xrotation
                      JOINT RightHandRing3
                      {
                        OFFSET -4.33881 -4e-06 -0.0
                        CHANNELS 3 Zrotation Yrotation Xrotation
                        JOINT RightHandRing4
                        {
                          OFFSET -2.654903 -4e-06 4e-06
                          CHANNELS 3 Zrotation Yrotation Xrotation
                          JOINT RightHandRingEnd
                          {
                            OFFSET -1.933568 0.077527 -5.2e-05
                            CHANNELS 3 Zrotation Yrotation Xrotation
                          }
                        }
                      }
                    }
                  }
                  JOINT RightHandPinky1
                  {
                    OFFSET -2.866425 -0.342796 -1.584145
                    CHANNELS 3 Zrotation Yrotation Xrotation
                    JOINT RightHandPinky2
                    {
                      OFFSET -5.091371 -1.332055 -1.772385
                      CHANNELS 3 Zrotation Yrotation Xrotation
                      JOINT RightHandPinky3
                      {
                        OFFSET -3.062664 -4e-06 1e-06
                        CHANNELS 3 Zrotation Yrotation Xrotation
                        JOINT RightHandPinky4
                        {
                          OFFSET -1.546529 4e-06 -2e-06
                          CHANNELS 3 Zrotation Yrotation Xrotation
                          JOINT RightHandPinkyEnd
                          {
                            OFFSET -1.945119 -0.157718 0.057211
                            CHANNELS 3 Zrotation Yrotation Xrotation
                          }
                        }
                      }
                    }
                  }
                }
              }
            }
          }
        }
      }
    }
    JOINT LeftLeg
    {
      OFFSET 10.043214 -8.434526 2.595655
      CHANNELS 3 Zrotation Yrotation Xrotation
      JOINT LeftShin
      {
        OFFSET -1e-06 -43.221752 -0.802913
        CHANNELS 3 Zrotation Yrotation Xrotation
        JOINT LeftFoot
        {
          OFFSET 1e-06 -42.155094 -3.481523
          CHANNELS 3 Zrotation Yrotation Xrotation
          JOINT LeftToeBase
          {
            OFFSET 0.0 -5.059472 13.231529
            CHANNELS 3 Zrotation Yrotation Xrotation
            JOINT LeftToeEnd
            {
              OFFSET -0.009607 -1.647619 6.513017
              CHANNELS 3 Zrotation Yrotation Xrotation
            }
          }
        }
      }
    }
    JOINT RightLeg
    {
      OFFSET -10.047278 -8.29526 2.620317
      CHANNELS 3 Zrotation Yrotation Xrotation
      JOINT RightShin
      {
        OFFSET 1e-06 -43.362206 -0.805556
        CHANNELS 3 Zrotation Yrotation Xrotation
        JOINT RightFoot
        {
          OFFSET 2e-06 -42.117393 -3.478398
          CHANNELS 3 Zrotation Yrotation Xrotation
          JOINT RightToeBase
          {
            OFFSET -0.0 -5.079609 13.284196
            CHANNELS 3 Zrotation Yrotation Xrotation
            JOINT RightToeEnd
            {
              OFFSET 0.009532 -1.634378 6.460591
              CHANNELS 3 Zrotation Yrotation Xrotation
            }
          }
        }
      }
    }
  }
}
MOTION
Frames: 5
Frame Time: 0.03333333333333333
0.0 0.0 0.0 0.0 -0.0 0.0 0.0 100.0 0.0 0.0 -0.0 0.0 0.0 -0.0 0.0 0.0 -0.0 0.0 0.0 -0.0 0.0 0.0 -0.0 0.0 0.0 -0.0 0.0 -0.0 -0.899998 -12.149938 7.7e-05 -2.2e-05 6e-06 -0.0 -0.0 -0.0 -0.0 -0.0 -0.0 -0.0 -0.0 -0.0 0.0 -0.0 0.0 -53.387947 -10.462402 5.069675 -2.14331 0.345981 0.003826 0.0 0.0 -0.0 -5.882106 9.861284 0.70259 -10.936873 -0.360575 7.156205 0.0 8.774823 -1e-06 -1e-06 -0.0 -0.0 -1.844034 2.498504 -2.507278 -10.163599 4.678944 4.621108 -20.976027 -4e-06 2e-06 -21.226292 2.451696 -3.594 0.0 -6e-06 -0.0 -1.362682 2.240797 -0.746323 -21.334913 0.584909 3.008323 -13.821213 -3e-06 2e-06 -23.887171 -0.249079 -0.839482 -1e-06 -0.0 -0.0 -0.294025 1.679686 0.833255 -14.218212 0.093214 1.30058 -34.212051 -0.287565 0.967171 -20.033215 0.964536 1.212845 1e-06 0.0 -0.0 -3.44039 0.788233 0.501655 -15.928189 -3.167309 2.999707 -6.338827 -1e-06 1e-06 -18.123449 3.648181 -4.90567 -4e-06 0.0 -2e-06 0.0 -0.0 0.0 111.426811 27.706366 37.234535 34.705791 18.477484 3.715975 0.0 0.0 0.0 2.243543 -5.255035 -3.180157 14.282891 -0.826594 6.952502 -3e-06 -12.690601 -0.0 0.0 -1e-06 -0.0 1.665666 -1.955921 -2.878299 4.7278 -4.170587 4.993924 11.020526 3e-06 -1e-06 12.109052 -3.735713 -2.866783 -0.0 0.0 -0.0 1.291984 -1.928548 -1.498087 14.800127 0.567469 3.865607 14.24257 -1.341736 -6.660658 19.631969 0.143927 -0.648244 -0.0 0.0 -0.0 0.353028 -1.51115 -0.03194 20.222794 3.684311 2.316629 18.787275 5e-06 0.0 10.751627 -0.479868 1.397906 1e-06 -1e-06 1e-06 3.273807 0.305947 -0.580111 21.486818 11.830376 2.266134 8.162928 2e-06 1e-06 18.399084 -3.798984 -4.940573 2e-06 1e-06 -1e-06 86.365303 -13.670341 12.428481 1.2307 -0.065278 -3.370676 -0.0 0.0 -0.0 -0.0 0.0 -0.0 0.0 0.0 2e-06 0.0 -0.0 0.0 0.0 -0.0 0.0 0.0 -0.0 0.0 0.0 -0.0 0.0 0.0 -0.0 -1e-06 
0.0 0.0 0.0 0.0 -0.0 0.0 -0.769751 99.48452 -0.727647 -0.877692 1.21335 0.07786 0.170138 0.205844 -0.578012 -0.122803 -0.27453 -0.601185 0.302295 0.038127 1.394667 0.986198 -0.32263 0.244336 -0.645876 -0.955231 -0.154635 0.486413 -1.876375 -12.0315 7.7e-05 -2.2e-05 6e-06 -0.010973 -0.132484 0.040201 -0.009937 -0.418453 -0.793172 -0.057384 0.158622 -0.767595 0.402079 -2.119303 1.471711 -53.381985 -9.390832 1.626987 -2.415869 -1.472894 -0.107033 1.921058 0.211704 2.899848 -5.882108 9.86129 0.702593 -10.936878 -0.360574 7.156208 2e-06 8.77483 -1e-06 -1.367151 1.216484 0.769836 -1.844033 2.498505 -2.507277 -10.163605 4.678948 4.62111 -20.976034 -3e-06 4e-06 -21.226295 2.451699 -3.593999 0.0 -6e-06 -0.0 -1.362681 2.240799 -0.746323 -21.334929 0.584911 3.008324 -13.821222 -2e-06 2e-06 -23.887184 -0.249078 -0.839482 -3.969653 -0.030613 0.147805 -0.294025 1.679688 0.833256 -14.218219 0.093216 1.300581 -34.212074 -0.287563 0.967172 -20.033226 0.964537 1.212843 0.0 -0.0 0.0 -3.44039 0.788234 0.501656 -15.928198 -3.167311 2.999707 -6.338829 -1e-06 1e-06 -18.123457 3.648185 -4.905672 -4e-06 -0.0 -2e-06 1.271589 0.83893 0.90452 108.358864 26.944639 40.846153 31.680809 20.345299 3.821473 1.064339 0.124222 2.527248 2.243544 -5.255041 -3.180161 14.282898 -0.826594 6.952506 -3e-06 -12.690615 -2e-06 1.712348 -1.62038 0.944495 1.665667 -1.955924 -2.8783 4.727801 -4.170589 4.993926 11.020534 4e-06 -4e-06 12.109059 -3.735716 -2.866788 0.0 0.0 -1e-06 1.291986 -1.928552 -1.498091 14.800136 0.56747 3.865609 14.24258 -1.341735 -6.660666 19.631977 0.143928 -0.648246 3.98047 -0.320149 -0.017421 0.353029 -1.511151 -0.031941 20.222801 3.684313 2.316629 18.787283 6e-06 -2e-06 10.751634 -0.479868 1.397906 -0.0 0.0 0.0 3.273808 0.305948 -0.580111 21.486824 11.830384 2.266135 8.16293 2e-06 -0.0 18.399092 -3.798984 -4.94058 2e-06 0.0 -0.0 85.929436 -13.528193 8.164726 1.44384 0.166409 0.288123 0.20478 -1.674389 -0.326204 0.289932 -0.130025 -0.531436 -0.0 1e-06 2e-06 1.452179 -0.315258 -3.980957 -0.062804 -0.070874 7.03148 -0.345515 -0.1557 -2.999343 -0.118648 0.14369 -0.037373 0.0 0.0 -1e-06 
0.0 0.0 0.0 0.0 -0.0 0.0 -1.47833 99.569687 -2.495477 -1.438812 2.58954 -0.315975 0.155491 0.396668 -0.325534 -0.13299 -0.26793 -0.826542 0.094429 0.278065 2.317265 1.646286 -0.657298 0.166157 -0.860125 -1.5112 -0.503477 1.184242 -2.381712 -11.785969 7.7e-05 -2.3e-05 6e-06 -0.026749 -0.15349 0.028814 0.000694 -0.733914 -1.631275 -0.09906 0.439834 -1.623154 -0.434996 -3.663312 2.361346 -53.559315 -8.655971 -0.43933 -1.705619 -4.112774 -0.181402 4.219558 -0.709351 1.683968 -5.882111 9.861289 0.702592 -10.936878 -0.360575 7.156209 1e-06 8.774828 0.0 -2.635364 2.767067 1.713895 -1.844033 2.498505 -2.507278 -10.163608 4.678947 4.621111 -20.97604 -4e-06 2e-06 -21.226305 2.451697 -3.594 0.0 -6e-06 -0.0 -1.362682 2.240798 -0.746323 -21.334936 0.584909 3.008324 -13.821227 -3e-06 2e-06 -23.887192 -0.24908 -0.839482 -8.118348 0.285441 0.271609 -0.294024 1.679688 0.833256 -14.218219 0.093215 1.30058 -34.212074 -0.287565 0.967171 -20.03323 0.964536 1.212843 0.0 0.0 -0.0 -3.440392 0.788233 0.501655 -15.928201 -3.16731 2.999708 -6.33883 -1e-06 1e-06 -18.123459 3.648183 -4.905671 -4e-06 -0.0 -2e-06 1.689883 1.893212 1.618583 105.212029 26.521116 43.545105 28.537668 23.065464 4.375414 1.862585 -0.076689 5.317566 2.243542 -5.25504 -3.18016 14.282891 -0.826592 6.952504 -3e-06 -12.690609 -2e-06 2.904967 -2.77571 1.421755 1.665666 -1.955924 -2.878302 4.727798 -4.17059 4.993925 11.020528 4e-06 -3e-06 12.109056 -3.735715 -2.866787 -0.0 -0.0 -1e-06 1.291985 -1.928551 -1.498091 14.800129 0.56747 3.865608 14.242574 -1.341734 -6.660662 19.631969 0.14393 -0.648246 7.43512 -0.686672 -0.200715 0.353029 -1.511151 -0.031939 20.222794 3.684314 2.316629 18.787273 7e-06 -1e-06 10.751628 -0.479866 1.397907 -1e-06 0.0 -0.0 3.273808 0.305947 -0.580111 21.48682 11.830384 2.266134 8.162929 3e-06 -1e-06 18.399082 -3.798985 -4.940576 2e-06 1e-06 1e-06 81.901207 -14.825788 1.800925 2.087939 1.754464 10.233979 1.071922 2.512803 -3.878278 0.315727 -0.340083 -1.152742 -0.0 0.0 2e-06 2.405648 -0.007789 -3.787188 -0.063378 -0.037638 4.864112 -0.611637 -0.774299 -0.460789 -0.232039 0.26398 0.054724 0.0 -0.0 -1e-06 
0.0 0.0 0.0 0.0 -0.0 0.0 -1.824277 99.523239 -4.454098 -1.468241 3.301714 -0.705459 0.126971 0.537473 0.008038 -0.107317 -0.147709 -1.096996 -0.388596 0.533333 3.100808 2.159513 -0.705541 0.152868 -0.920911 -1.808645 -0.825671 1.400831 -2.573768 -11.563661 7.7e-05 -2.3e-05 6e-06 -0.030865 -0.123477 0.003988 0.026204 -1.000068 -2.490029 -0.119884 0.766871 -2.488926 -1.61579 -4.490141 3.215787 -53.884922 -7.962707 -1.91469 -1.127069 -6.945116 -0.251567 5.940506 -0.92343 0.231352 -5.882108 9.861288 0.70259 -10.936877 -0.360576 7.156208 2e-06 8.774828 -1e-06 -3.699585 4.133451 2.466285 -1.844033 2.498505 -2.507278 -10.163604 4.678945 4.621109 -20.97603 -5e-06 2e-06 -21.226292 2.451696 -3.594 0.0 -6e-06 -0.0 -1.362682 2.240799 -0.746323 -21.334921 0.584908 3.008324 -13.821218 -4e-06 2e-06 -23.88718 -0.24908 -0.839482 -12.179317 0.584759 0.234126 -0.294025 1.679688 0.833256 -14.218214 0.093214 1.30058 -34.212067 -0.287566 0.967171 -20.033224 0.964536 1.212845 0.0 0.0 -0.0 -3.440387 0.788233 0.501656 -15.928189 -3.16731 2.999707 -6.338828 -2e-06 1e-06 -18.123451 3.648183 -4.905672 -4e-06 -0.0 -3e-06 1.743905 2.982156 2.419035 101.868546 26.676298 45.506016 25.887037 25.400969 4.769213 1.704068 0.125675 7.290617 2.243541 -5.255037 -3.180159 14.282896 -0.826592 6.952505 -3e-06 -12.690611 0.0 3.866065 -3.919556 1.759824 1.665666 -1.955922 -2.8783 4.727799 -4.170587 4.993925 11.020529 5e-06 0.0 12.109056 -3.735713 -2.866786 0.0 -0.0 -0.0 1.291985 -1.92855 -1.49809 14.800132 0.567469 3.865608 14.242575 -1.341734 -6.660659 19.631969 0.143929 -0.648244 10.913278 -1.005823 -0.519485 0.353029 -1.511151 -0.03194 20.222797 3.684315 2.316631 18.787279 8e-06 0.0 10.751632 -0.479868 1.397907 -1e-06 0.0 1e-06 3.273806 0.305948 -0.580111 21.48682 11.830382 2.266135 8.16293 3e-06 0.0 18.399088 -3.798985 -4.940576 1e-06 1e-06 1e-06 75.993546 -16.189892 -3.945627 3.237991 2.974676 23.026968 1.280576 5.49456 -7.7578 0.383433 -0.579856 -1.602847 1e-06 0.0 2e-06 2.680243 0.580732 -5.263801 -0.052832 0.013727 6.280846 -0.69232 -1.277788 0.151158 -0.335783 0.308864 0.224545 -0.0 0.0 -1e-06 
0.0 0.0 0.0 0.0 -0.0 0.0 -1.945984 99.441704 -6.526891 -1.267868 3.436176 -1.171605 0.201108 0.647555 0.426958 -0.02103 0.092512 -1.357152 -0.836741 0.727033 3.824763 2.449524 -0.571837 0.326141 -0.999163 -1.875352 -1.133558 1.445141 -2.61499 -11.674035 7.7e-05 -2.3e-05 6e-06 -0.033137 -0.097232 -0.004337 0.058175 -1.262238 -3.286791 -0.147066 1.08319 -3.278124 -2.912914 -4.874611 3.904179 -54.626545 -7.148317 -2.388683 -0.598688 -9.553438 -0.280504 7.191359 -0.119605 -0.657377 -5.882114 9.861295 0.702593 -10.936883 -0.360573 7.15621 1e-06 8.774835 2e-06 -4.790923 5.374173 3.108372 -1.844032 2.498506 -2.507279 -10.163611 4.678952 4.621113 -20.976044 -2e-06 2e-06 -21.226311 2.451701 -3.594002 0.0 -6e-06 -0.0 -1.362684 2.2408 -0.746324 -21.33493 0.584912 3.008325 -13.821225 -1e-06 1e-06 -23.887188 -0.249078 -0.839485 -16.223547 0.859898 0.244305 -0.294024 1.679689 0.833257 -14.218224 0.093216 1.300581 -34.212082 -0.287563 0.967169 -20.033232 0.964537 1.212843 1e-06 1e-06 0.0 -3.440392 0.788234 0.501656 -15.928201 -3.167311 2.999708 -6.338833 -1e-06 1e-06 -18.123466 3.648188 -4.905674 -4e-06 0.0 -2e-06 1.360035 4.231289 3.396495 97.884064 27.021065 47.021023 23.459368 26.995146 4.800229 1.43175 0.754683 8.988993 2.243543 -5.255041 -3.180159 14.282896 -0.826593 6.952506 -3e-06 -12.690612 0.0 4.800172 -5.071105 2.041276 1.665667 -1.955922 -2.878301 4.7278 -4.170588 4.993926 11.020531 4e-06 -3e-06 12.109058 -3.735715 -2.866787 -1e-06 -1e-06 -0.0 1.291987 -1.928551 -1.498089 14.800136 0.567468 3.865608 14.24258 -1.341736 -6.660666 19.631977 0.143928 -0.64825 14.419895 -1.286706 -0.882541 0.353029 -1.511151 -0.03194 20.222801 3.684313 2.316629 18.787281 8e-06 -1e-06 10.751633 -0.479868 1.397905 -2e-06 1e-06 0.0 3.273808 0.305947 -0.580111 21.486822 11.830384 2.266131 8.16293 3e-06 -1e-06 18.399092 -3.798986 -4.940581 1e-06 2e-06 -0.0 68.411964 -17.065102 -9.191891 4.517466 3.057269 39.477867 1.633432 5.858293 -10.998152 0.453194 -0.890676 -1.837698 -0.0 -0.0 3e-06 2.517454 1.233712 -6.672962 -0.054058 0.063414 7.597788 -0.459593 -1.409833 0.907382 -0.428847 0.31565 0.290387 0.0 -0.0 -1e-06 
